<svg width="33" height="32" viewBox="0 0 33 32" fill="none" xmlns="http://www.w3.org/2000/svg">
<path d="M16.5579 6C14.1398 6 12.1729 8.07813 12.1729 10.6331C12.1729 13.1875 14.1398 15.2656 16.5579 15.2656C18.9761 15.2656 20.9429 13.1875 20.9429 10.6331C20.9429 8.07813 18.9761 6 16.5579 6ZM16.5579 13.3906C15.1736 13.3906 14.0479 12.1538 14.0479 10.6331C14.0479 9.1125 15.1736 7.875 16.5579 7.875C17.9423 7.875 19.0679 9.1125 19.0679 10.6331C19.0679 12.1538 17.9423 13.3906 16.5579 13.3906Z" fill="black"/>
<path d="M25.8954 6.62305H25.8654C23.7678 6.64055 22.0766 8.45367 22.0947 10.6643C22.1128 12.8643 23.8172 14.6424 25.9016 14.6424H25.9316C26.9597 14.6337 27.9197 14.2005 28.6341 13.4224C29.3316 12.6618 29.711 11.6599 29.7022 10.6012C29.6841 8.40117 27.9797 6.62305 25.8954 6.62305ZM27.2522 12.1543C26.8935 12.5455 26.4191 12.763 25.916 12.7674H25.9016C24.8447 12.7674 23.9791 11.8205 23.9697 10.6487C23.9597 9.4718 24.8172 8.5068 25.881 8.49805H25.8954C26.9522 8.49805 27.8179 9.44555 27.8272 10.6168C27.8322 11.1993 27.6279 11.7455 27.2522 12.1543Z" fill="black"/>
<path d="M26.8671 15.1113H24.9296C23.439 15.1113 22.0815 15.6926 21.0721 16.6401C20.0896 16.0588 18.9452 15.7251 17.7234 15.7251H15.3927C14.1471 15.7251 12.9809 16.072 11.9865 16.6738C10.9727 15.7063 9.60086 15.1113 8.09211 15.1113H6.15461C3.04274 15.1113 0.510864 17.6432 0.510864 20.7551V23.1444H8.79461V25.0063H24.3215V23.1444H32.5109V20.7551C32.5109 17.6432 29.979 15.1113 26.8671 15.1113ZM8.87899 21.2694H2.38586V20.7551C2.38586 18.6769 4.07649 16.9863 6.15461 16.9863H8.09211C9.01711 16.9863 9.86524 17.3213 10.5221 17.8769C9.67399 18.8044 9.08711 19.9744 8.87899 21.2694ZM22.4465 23.1313H19.2859H13.7359H10.6696V22.3232C10.6696 21.9613 10.7109 21.6082 10.7884 21.2694C10.9402 20.6044 11.2334 19.9919 11.634 19.4663C12.0321 18.9432 12.5371 18.5057 13.1165 18.1863C13.7921 17.8126 14.5684 17.6001 15.3927 17.6001H17.7234C18.519 17.6001 19.2684 17.7976 19.9265 18.1463C20.5052 18.4526 21.0134 18.8763 21.4184 19.3851C21.8521 19.9288 22.1677 20.5694 22.3277 21.2694C22.4052 21.6082 22.4465 21.9613 22.4465 22.3232V23.1313ZM30.6359 21.2694H24.2371C24.0252 19.9538 23.4227 18.7669 22.5534 17.8319C23.2021 17.3032 24.0296 16.9863 24.9296 16.9863H26.8671C28.9452 16.9863 30.6359 18.6769 30.6359 20.7551V21.2694Z" fill="black"/>
<path d="M7.1202 6.62305H7.0902C4.9927 6.64055 3.30145 8.45367 3.31957 10.6643C3.3377 12.8643 5.04207 14.6424 7.12645 14.6424H7.15645C8.18457 14.6337 9.14457 14.2005 9.85895 13.4224C10.5564 12.6618 10.9358 11.6599 10.9271 10.6012C10.9089 8.40117 9.20457 6.62305 7.1202 6.62305ZM8.47707 12.1543C8.11832 12.5455 7.64395 12.763 7.14082 12.7674H7.12645C6.06957 12.7674 5.20395 11.8205 5.19457 10.6487C5.18457 9.4718 6.04207 8.5068 7.10582 8.49805H7.1202C8.17707 8.49805 9.0427 9.44555 9.05207 10.6168C9.05707 11.1993 8.8527 11.7455 8.47707 12.1543Z" fill="black"/>
</svg>
