<svg width="24" height="24" viewBox="0 0 24 24" fill="none" xmlns="http://www.w3.org/2000/svg">
<path fill-rule="evenodd" clip-rule="evenodd" d="M12 0C18.6264 0 24 5.3736 24 12C24 17.4774 20.3282 22.0984 15.3124 23.5364V14.6558H17.9L18.2878 11.6512H15.3124V9.73755C15.3124 8.86981 15.5533 8.27838 16.7977 8.27838H18.375V5.59845C18.1005 5.56201 17.159 5.48035 16.0637 5.48035C13.7763 5.48035 12.2109 6.87598 12.2109 9.44019V11.6512H9.63281V14.6558H12.2109V23.9973L12.1872 23.9977L12.1869 23.9977C12.1247 23.9988 12.0625 24 12 24C5.3736 24 0 18.6264 0 12C0 5.3736 5.3736 0 12 0ZM15.0671 23.6036L15.0452 23.6093C15.0155 23.6172 14.9856 23.625 14.9558 23.6325C14.9929 23.6232 15.0301 23.6135 15.0671 23.6036Z" fill="#2C3036"/>
</svg>
