<svg width="36" height="36" viewBox="0 0 36 36" fill="none" xmlns="http://www.w3.org/2000/svg">
<path d="M25.2754 0H10.7246C4.81103 0 0 4.81103 0 10.7246V25.2754C0 31.189 4.81103 36 10.7246 36H25.2754C31.189 36 36 31.189 36 25.2754V10.7246C35.9999 4.81103 31.1889 0 25.2754 0ZM32.3784 25.2754C32.3784 29.1982 29.1982 32.3784 25.2754 32.3784H10.7246C6.80175 32.3784 3.6216 29.1982 3.6216 25.2754V10.7246C3.6216 6.80169 6.80175 3.6216 10.7246 3.6216H25.2754C29.1982 3.6216 32.3784 6.80169 32.3784 10.7246V25.2754Z" fill="url(#paint0_linear)"/>
<path d="M18 8.68913C12.8659 8.68913 8.68909 12.866 8.68909 17.9999C8.68909 23.1339 12.8659 27.3108 18 27.3108C23.134 27.3108 27.3109 23.134 27.3109 17.9999C27.3109 12.8659 23.134 8.68913 18 8.68913ZM18 23.6893C14.8578 23.6893 12.3107 21.1421 12.3107 18C12.3107 14.8579 14.8579 12.3107 18 12.3107C21.1421 12.3107 23.6893 14.8579 23.6893 18C23.6893 21.1421 21.142 23.6893 18 23.6893Z" fill="url(#paint1_linear)"/>
<path d="M27.3289 10.9901C28.561 10.9901 29.5599 9.99124 29.5599 8.75905C29.5599 7.52686 28.561 6.52797 27.3289 6.52797C26.0967 6.52797 25.0978 7.52686 25.0978 8.75905C25.0978 9.99124 26.0967 10.9901 27.3289 10.9901Z" fill="url(#paint2_linear)"/>
<defs>
<linearGradient id="paint0_linear" x1="18" y1="35.8952" x2="18" y2="0.279618" gradientUnits="userSpaceOnUse">
<stop stop-color="#2C2C2C"/>
</linearGradient>
<linearGradient id="paint1_linear" x1="18" y1="27.2566" x2="18" y2="8.83377" gradientUnits="userSpaceOnUse">
<stop stop-color="#2C2C2C"/>
</linearGradient>
<linearGradient id="paint2_linear" x1="27.3289" y1="10.9771" x2="27.3289" y2="6.56263" gradientUnits="userSpaceOnUse">
<stop stop-color="#2C2C2C"/>
</linearGradient>
</defs>
</svg>
