<svg width="33" height="32" viewBox="0 0 33 32" fill="none" xmlns="http://www.w3.org/2000/svg">
<path d="M27.8246 4.68628C24.8026 1.66431 20.7845 0 16.5109 0C12.2372 0 8.21912 1.66431 5.19714 4.68628C2.17517 7.70825 0.510864 11.7263 0.510864 16C0.510864 20.2737 2.17517 24.2917 5.19714 27.3137C8.21912 30.3357 12.2372 32 16.5109 32C20.7845 32 24.8026 30.3357 27.8246 27.3137C30.8466 24.2917 32.5109 20.2737 32.5109 16C32.5109 11.7263 30.8466 7.70825 27.8246 4.68628ZM16.5109 30.125C8.72229 30.125 2.38586 23.7886 2.38586 16C2.38586 8.21143 8.72229 1.875 16.5109 1.875C24.2994 1.875 30.6359 8.21143 30.6359 16C30.6359 23.7886 24.2994 30.125 16.5109 30.125Z" fill="black"/>
<path d="M16.5108 4.3584C10.0916 4.3584 4.86923 9.58081 4.86923 16C4.86923 22.4192 10.0916 27.6416 16.5108 27.6416C22.93 27.6416 28.1524 22.4192 28.1524 16C28.1524 9.58081 22.93 4.3584 16.5108 4.3584ZM16.5108 25.7666C11.1256 25.7666 6.74423 21.3853 6.74423 16C6.74423 10.6147 11.1256 6.2334 16.5108 6.2334C21.8961 6.2334 26.2774 10.6147 26.2774 16C26.2774 21.3853 21.8961 25.7666 16.5108 25.7666Z" fill="black"/>
<path d="M17.4483 8.27051H15.5733V16.9373H21.9901V15.0623H17.4483V8.27051Z" fill="black"/>
</svg>
