<svg width="29" height="20" viewBox="0 0 29 20" fill="none" xmlns="http://www.w3.org/2000/svg">
<path fill-rule="evenodd" clip-rule="evenodd" d="M25.2742 0.596774C26.5 0.935484 27.4677 1.90323 27.7903 3.12903C28.3871 5.35484 28.3871 10 28.3871 10C28.3871 10 28.3871 14.6452 27.8064 16.871C27.4677 18.1129 26.5161 19.0806 25.2903 19.4032C23.0645 20 14.1935 20 14.1935 20C14.1935 20 5.32258 20 3.1129 19.4032C1.8871 19.0645 0.919355 18.0968 0.596774 16.871C0 14.6452 0 10 0 10C0 10 0 5.35484 0.580645 3.12903C0.919355 1.8871 1.87097 0.919355 3.09677 0.596774C5.32258 0 14.1935 0 14.1935 0C14.1935 0 23.0645 0 25.2742 0.596774ZM18.7097 9.99998L11.2903 14.2258V5.77417L18.7097 9.99998Z" fill="#090709"/>
</svg>
