<svg width="36" height="36" viewBox="0 0 36 36" fill="none" xmlns="http://www.w3.org/2000/svg">
<path fill-rule="evenodd" clip-rule="evenodd" d="M17.8015 0C10.382 0.000705255 5.24097 0.0253893 2.60202 2.60239C0.0251493 5.24075 0.000460072 10.6233 0.000460072 17.8014C7.97093 17.5608 11.6158 17.3613 14.5228 14.5226C17.3613 11.6156 17.561 7.97079 17.8015 0ZM2.60156 33.398C0.0246893 30.7596 0 25.3771 0 18.199C7.97048 18.4395 11.6153 18.6391 14.5223 21.4778C17.3609 24.3848 17.5605 28.0296 17.8011 35.9997C10.3816 35.9997 5.24051 35.9757 2.60156 33.398ZM18.1989 35.9997C18.4395 28.0296 18.6391 24.3848 21.4777 21.4778C24.3846 18.6391 28.0295 18.4395 36 18.199C35.9992 25.3771 35.9746 30.7596 33.3977 33.398C30.7588 35.9757 25.6185 35.9997 18.1989 35.9997ZM18.1989 0C18.4395 7.97079 18.6391 11.6156 21.4777 14.5226C24.3846 17.3613 28.0295 17.5608 36 17.8014C35.9992 10.6233 35.9746 5.24075 33.3977 2.60239C30.7588 0.0253893 25.6185 0.000705255 18.1989 0Z" fill="#2C3036"/>
</svg>
