<svg width="24" height="24" viewBox="0 0 24 24" fill="none" xmlns="http://www.w3.org/2000/svg">
<path fill-rule="evenodd" clip-rule="evenodd" d="M11.8677 0C6.92136 0.00047017 3.49398 0.0169262 1.73468 1.73493C0.0167662 3.49383 0.000306715 7.08217 0.000306715 11.8676C5.31395 11.7072 7.74386 11.5742 9.68186 9.68172C11.5742 7.74372 11.7073 5.31386 11.8677 0ZM1.73437 22.2653C0.0164595 20.5064 0 16.9181 0 12.1327C5.31365 12.293 7.74356 12.4261 9.68156 14.3185C11.5739 16.2565 11.707 18.6864 11.8674 23.9998C6.92106 23.9998 3.49367 23.9838 1.73437 22.2653ZM12.1326 23.9998C12.293 18.6864 12.4261 16.2565 14.3185 14.3185C16.2564 12.4261 18.6863 12.293 24 12.1327C23.9995 16.9181 23.983 20.5064 22.2651 22.2653C20.5058 23.9838 17.079 23.9998 12.1326 23.9998ZM12.1326 0C12.293 5.31386 12.4261 7.74372 14.3185 9.68172C16.2564 11.5742 18.6863 11.7072 24 11.8676C23.9995 7.08217 23.983 3.49383 22.2651 1.73493C20.5058 0.0169262 17.079 0.00047017 12.1326 0Z" fill="#2C3036"/>
</svg>
